<svg width="181" height="48" viewBox="0 0 181 48" fill="none" xmlns="http://www.w3.org/2000/svg">
<path d="M92.3996 40.1837L93.7353 41.8711L101.479 41.8751L97.368 36.7566C97.3703 36.7544 97.3726 36.7521 97.3749 36.7499L90.9876 28.7828L83.2233 28.7788L88.1031 34.8679C87.0451 35.2545 85.8825 35.4478 84.6273 35.4478C78.5969 35.4478 73.9665 30.6675 73.9665 24.4375C73.9665 18.1592 78.5969 13.4273 84.6273 13.4273C90.71 13.4273 95.3404 18.1552 95.3404 24.4375C95.3404 25.0101 95.3002 25.5716 95.223 26.1186L100.474 32.6684C101.796 30.2351 102.529 27.4467 102.529 24.4375C102.529 14.6798 94.6646 7 84.6273 7C74.6383 7 66.7734 14.6798 66.7734 24.4375C66.7734 34.1953 74.6423 41.8711 84.6273 41.8711C87.4313 41.8711 90.0341 41.2911 92.3996 40.1837Z" fill="black"/>
<path d="M119.663 15.6934C127.19 15.6934 133.076 21.4402 133.076 28.7817C133.076 36.1232 127.19 41.8216 119.663 41.8216C112.136 41.8216 106.251 36.1232 106.251 28.7817C106.251 21.4402 112.136 15.6934 119.663 15.6934ZM126.611 28.7817C126.611 24.6297 123.574 21.4402 119.663 21.4402C115.801 21.4402 112.712 24.6297 112.712 28.7817C112.712 32.841 115.753 36.0789 119.663 36.0789C123.574 36.0789 126.611 32.841 126.611 28.7817Z" fill="black"/>
<path d="M152.865 21.9708C151.899 21.5399 150.692 21.2982 149.485 21.2982C146.927 21.2982 144.662 22.599 143.403 25.0636V41.3413H136.793V16.1757H143.403V18.9303C144.996 16.7556 147.313 15.5958 150.113 15.5958C151.412 15.6481 152.189 15.7891 152.865 16.1797" fill="black"/>
<path d="M168.731 41.8203C161.108 41.8203 155.222 36.1219 155.222 28.7804C155.222 21.4872 160.866 15.7405 168.156 15.7405C175.292 15.7405 180.603 21.5355 180.603 29.2636V31.0034H161.884C162.801 34.1405 165.549 36.2709 169.025 36.2709C171.245 36.2709 173.221 35.546 174.572 34.2412L178.197 38.7596C175.337 40.8779 172.424 41.8203 168.731 41.8203ZM161.832 26.2715H174.134C173.317 23.2753 170.903 21.1973 168.011 21.1973C164.966 21.1973 162.652 23.1786 161.832 26.2715Z" fill="black"/>
<path d="M45.2954 8.07314H5.81455L0.704102 1.70442H40.185L45.2954 8.07314Z" fill="#004DC4"/>
<path d="M21.4708 20.8157H5.81455L0.704102 14.4418H16.3603L21.4708 20.8157Z" fill="#0065FF"/>
<path d="M45.295 20.8157H29.6388L24.5283 14.4418H40.1845L45.295 20.8157Z" fill="#0065FF"/>
<path d="M45.2954 33.5532H5.81455L0.704102 27.1845H40.185L45.2954 33.5532Z" fill="#4D93FF"/>
<path d="M45.295 46.2956H29.6388L24.5283 39.9269H40.1845L45.295 46.2956Z" fill="#99C1FF"/>
</svg>
